<svg aria-hidden="true" style="width:0;height:0;position:absolute;overflow:hidden" xmlns="http://www.w3.org/2000/svg"><defs><symbol id="icon-football-cursor" viewBox="0 0 32 32"><path stroke-width="6.957" stroke-linejoin="round" d="M16.317 28.123 4.511 4.512l23.611 11.806-9.784 2.021-2.022 9.784z"/></symbol><symbol id="icon-ball" viewBox="0 0 32 32"><path d="M16 0C7.164 0 0 7.164 0 16s7.164 16 16 16 16-7.164 16-16C31.99 7.168 24.832.01 16 0zm.571 4.613 5.562-2.223a14.82 14.82 0 0 1 1.888 1.021l-.06-.036.015.009c.623.397 1.16.795 1.668 1.225l-.022-.018.045.039c.248.212.47.414.686.622l-.005-.004.085.081c.229.224.449.452.661.686l.012.013.053.062c.19.213.373.434.551.659l.127.16c.193.249.379.503.555.765l-1.109 4.714-5.455 1.819-5.255-4.205zM4.163 6.911l.126-.16c.196-.248.374-.46.558-.667l-.013.015.059-.068c.223-.248.441-.475.667-.696l.003-.003c.027-.026.053-.053.081-.077.21-.202.43-.403.655-.597l.074-.062c.482-.41 1.014-.805 1.571-1.164l.059-.036.021-.013c.51-.33 1.106-.658 1.724-.946l.092-.039 5.588 2.213v5.387l-5.255 4.204-5.455-1.815-1.109-4.714c.209-.307.391-.555.58-.798l-.026.035zM3.52 24.184c-.121-.179-.27-.418-.412-.66l-.038-.07-.035-.06c-.106-.175-.24-.422-.367-.673l-.037-.08-.004-.008a13.614 13.614 0 0 1-.669-1.55l-.033-.103v-.005a10.597 10.597 0 0 1-.235-.711l-.026-.104-.029-.101a10.04 10.04 0 0 1-.18-.684l-.019-.099-.017-.076a13.74 13.74 0 0 1-.277-1.746l-.005-.06 3.256-3.907 5.418 1.806 1.572 6.289-2.584 3.437zm16.032 6.319c-.267.066-.54.123-.814.174-.038.008-.077.014-.116.021-.157.031-.397.069-.64.1l-.065.007-.188.024c-.219.025-.441.045-.663.061-.07.005-.139.012-.209.016a14.35 14.35 0 0 1-1.645.007c-.032 0-.062-.005-.093-.008a17.645 17.645 0 0 1-.693-.053l-.027-.005a15.138 15.138 0 0 1-1.604-.258l.1.018-3.155-4.939 2.543-3.391h7.431l2.585 3.413zM30.585 19.2l-.017.076c-.082.369-.151.632-.226.891l.027-.109-.029.101c-.109.38-.198.651-.294.919l.033-.104v.005c-.237.665-.474 1.21-.741 1.738l.039-.084-.004.008c-.166.335-.3.581-.441.823l.038-.07-.035.06c-.175.306-.323.545-.479.778l.03-.048-5.262.83-2.602-3.435 1.572-6.287 5.418-1.806 3.256 3.907a14.908 14.908 0 0 1-.3 1.907l.019-.099z"/></symbol><symbol id="icon-paper" viewBox="0 0 32 32"><path stroke-width=".938" stroke-miterlimit="10" stroke-linecap="round" stroke-linejoin="round" d="m28.887 23.349-.304 2.94-2.211-.229M11.72 4.796l.447-4.327L31.048 2.42l-1.899 18.393"/><path stroke-width=".938" stroke-miterlimit="10" stroke-linecap="round" stroke-linejoin="round" d="m7.39 29.597-3.221.436L.951 6.254l18.81-2.548.518 3.829"/><path stroke-width=".938" stroke-miterlimit="10" stroke-linecap="round" stroke-linejoin="round" d="M7.396 13.604h-.005v17.927h15.064l3.917-3.914V7.536H7.39v3.569h.005"/><path stroke-width=".938" stroke-miterlimit="10" stroke-linecap="round" stroke-linejoin="round" d="M22.455 31.531v-3.914h3.917z"/></symbol><symbol id="icon-scissors" viewBox="0 0 32 32"><path stroke-width=".938" stroke-miterlimit="10" stroke-linecap="round" stroke-linejoin="round" d="M11.906 21.805c.661.223 1.032.73.671 1.48l-1.699 3.55c-1.874 3.914-6.49 1.42-4.985-1.784 1.397-2.974 3.367-4.139 6.013-3.247zM11.825 12.941l7.39 15.496c2.805 5.88 9.849 2.305 9.721-1.862-.12-3.919-3.574-8.288-8.598-7.581-1.215.171-1.797-.235-2.3-1.286L9.913.732c-.452-.947-2.86 2.139-.76 6.61l1.747 3.663"/><path stroke-width=".938" stroke-miterlimit="10" stroke-linecap="round" stroke-linejoin="round" d="m15.978 21.649-3.194 6.694c-2.805 5.88-9.847 2.305-9.72-1.862.118-3.919 3.574-8.286 8.596-7.579 1.215.17 1.798-.235 2.302-1.288l.046-.095m6.088-4.571-2.15 4.571m-1.968-4.113L22.085.641c.452-.949 2.862 2.137.761 6.61l-1.844 3.863M20.092 21.898c-.661.223-1.03.728-.671 1.478l1.699 3.55c1.876 3.916 6.492 1.422 4.985-1.782-1.397-2.976-3.367-4.139-6.013-3.247zM15.273 20.175l3.295-1.648M15.888 17.175l-.009-.067"/></symbol><symbol id="icon-rock" viewBox="0 0 32 32"><path stroke-width=".938" stroke-miterlimit="10" stroke-linecap="round" stroke-linejoin="round" d="M3.348 20.308H1.37a.901.901 0 0 1-.888-1.055l.724-4.181a2.033 2.033 0 0 1 1.522-1.625l.014-.003 7.808-1.822a2.023 2.023 0 0 1 1.905.552l3.579 3.638c.36.366.582.868.582 1.421v2.173a.902.902 0 0 1-.901.902H5.551M23.652 20.308h3.652c1.288-.052 1.032-1.876.013-2.189l-2.253-.903c-.932-.438-2.331.639-2.303 1.618-.063.663.062 1.462.891 1.474zM20.85 27.496h-6.345c-2.238-.09-1.793-3.259-.023-3.803l3.914-1.568c1.62-.762 4.05 1.109 4.002 2.811.11 1.152-.107 2.539-1.548 2.56z"/><path stroke-width=".938" stroke-miterlimit="10" stroke-linecap="round" stroke-linejoin="round" d="M11.277 11.588v-.825c0-.569.226-1.116.627-1.519l4.08-4.104c.39-.392.93-.635 1.527-.635h8.633c1.133 0 2.052.919 2.052 2.052v2.117c0 .372.159.707.413.94l.001.001 2.325 2.128c.367.337.596.818.596 1.353v3.692a.901.901 0 0 1-.901.901h-4.387M23.319 17.688h-4.514"/><path stroke-width=".938" stroke-miterlimit="10" stroke-linecap="round" stroke-linejoin="round" d="m26.602 13.265-2.425-.614-2.958-4.87a2.992 2.992 0 0 0-2.556-1.437h-2.715c-.775 0-1.477.316-1.983.825l2.017-2.029c.39-.393.93-.636 1.527-.636h8.633a2.05 2.05 0 0 1 2.051 2.051v2.117c0 .358.15.699.414.941l2.325 2.128c.367.337.596.818.596 1.353v2.844c0-.839-.57-1.571-1.383-1.777l-1.402-.355M16.033 15.813l-7.473-.139a3.267 3.267 0 0 1-1.247-.272l.021.008-4.591-1.965 7.808-1.822a2.021 2.021 0 0 1 1.904.552zM24.177 12.651l.219 1.697M8.56 15.673l.828 1.443"/><path d="M26.554 23.279a.472.472 0 0 1-.668.668.472.472 0 0 1 .668-.668z"/><path stroke-width=".938" stroke-miterlimit="10" stroke-linecap="round" stroke-linejoin="round" d="M20.85 27.496h5.37M23.652 20.308h-2.801"/></symbol><symbol id="icon-moon" viewBox="0 0 32 32"><path d="M31.221 18.225c-.327-.082-.655 0-.941.205a12.004 12.004 0 0 1-3.642 2.128c-1.268.491-2.66.737-4.133.737-3.314 0-6.342-1.35-8.511-3.519s-3.519-5.197-3.519-8.511c0-1.391.245-2.742.655-3.969a10.995 10.995 0 0 1 1.964-3.519A1.045 1.045 0 0 0 12.93.304c-.286-.205-.614-.286-.941-.205-3.478.941-6.506 3.028-8.675 5.811A16.142 16.142 0 0 0 0 15.731c0 4.46 1.8 8.511 4.747 11.457s6.956 4.747 11.457 4.747c3.765 0 7.243-1.309 10.025-3.478a16.14 16.14 0 0 0 5.729-8.961c.164-.573-.164-1.146-.737-1.268z"/></symbol><symbol id="icon-sun" viewBox="0 0 32 32"><path d="M6.269 10.513a11.357 11.357 0 0 1 4.189-4.215l.055-.029-4.845-1.798a.931.931 0 0 0-1.195 1.203l-.002-.006zM4.826 16c0-1.039.143-2.044.409-2.999L.542 15.154a.933.933 0 0 0-.006 1.69l.006.002 4.693 2.153a10.891 10.891 0 0 1-.409-2.993v-.007zM16 4.826h.006c1.065 0 2.096.149 3.071.429l-.079-.019L16.845.543a.933.933 0 0 0-1.69-.006l-.002.006L13 5.236c.897-.26 1.927-.409 2.993-.409H16zm9.731 5.687 1.797-4.845a.931.931 0 0 0-1.203-1.195l.006-.002-4.845 1.798a11.357 11.357 0 0 1 4.215 4.189l.029.055zM16 27.174h-.006c-1.065 0-2.096-.149-3.071-.429l.079.019 2.153 4.693a.933.933 0 0 0 1.69.006l.002-.006L19 26.764c-.897.26-1.928.409-2.993.409H16zm-9.731-5.687-1.798 4.845a.931.931 0 0 0 1.203 1.195l-.006.002 4.845-1.797a11.357 11.357 0 0 1-4.215-4.189l-.029-.055zm25.188-6.333-4.693-2.153c.266.955.409 1.961.409 2.999s-.143 2.044-.409 2.999l4.693-2.153a.933.933 0 0 0 .006-1.69l-.006-.002zm-5.726 6.333a11.357 11.357 0 0 1-4.189 4.215l-.055.029 4.845 1.797a.925.925 0 0 0 .982-.215.927.927 0 0 0 .213-.989l.002.006zM16 25.311c-5.134 0-9.311-4.177-9.311-9.311S10.866 6.689 16 6.689s9.311 4.177 9.311 9.311-4.177 9.311-9.311 9.311z"/></symbol><symbol id="icon-search" viewBox="0 0 32 32"><path stroke-width="4" d="M24.088 13.044c0 6.099-4.945 11.044-11.044 11.044S2 19.143 2 13.044 6.945 2 13.044 2s11.044 4.945 11.044 11.044z"/><path d="M28.586 31.414a2 2 0 0 0 2.827-2.829l.001.001-2.828 2.828zm-5.65-11.306-1.414-1.414-2.828 2.828 1.414 1.414 2.828-2.828zm8.48 8.478-8.48-8.48-2.828 2.83 8.478 8.48 2.828-2.83z"/></symbol><symbol id="icon-logo" viewBox="0 0 76 32"><path fill="none" stroke="#000" stroke-width="1.6" stroke-linecap="round" stroke-linejoin="round" style="stroke:var(--color1,#000)" d="m8.8 9.943-8 8 8 8m16-16 8 8-8 8"/><path style="fill:var(--color1,#000)" d="m19.628 4.034-6.87 25.637a.654.654 0 1 1-1.261-.342l-.001.005 6.87-25.638a.654.654 0 1 1 1.261.343l.001-.005z"/><path fill="#d9d9d9" style="fill:var(--color2,#d9d9d9)" d="M18.366 3.696a.654.654 0 1 1 1.261.343l.001-.005-.837 3.122-1.262-.338.837-3.122z"/><path fill="none" stroke="#000" stroke-width=".8" stroke-linecap="round" style="stroke:var(--color1,#000)" d="m20.556 5.618 2.523.677m-8.831-2.367 2.523.676M15.717.969l1.31 2.248M14.07 7.118l2.258-1.292m3.893 1.043 1.31 2.248m-.611-4.858 2.258-1.291"/><path style="fill:var(--color1,#000)" d="M44.013 12.058a3.69 3.69 0 0 1-1.805-.442 3.308 3.308 0 0 1-1.249-1.204l-.008-.015a3.428 3.428 0 0 1-.452-1.711v-.048.002c0-.646.15-1.229.451-1.747.306-.52.736-.938 1.25-1.22l.017-.008a3.7 3.7 0 0 1 1.805-.442c.499 0 .96.083 1.382.25s.781.41 1.075.73l-.451.451c-.525-.531-1.187-.797-1.987-.797h-.036c-.519 0-1.006.135-1.428.373l.015-.008a2.698 2.698 0 0 0-1.027.998c-.23.397-.365.873-.365 1.381v.041-.002c0 .525.122.998.365 1.421.25.422.592.755 1.027.998.408.23.895.365 1.414.365h.038-.002c.806 0 1.469-.269 1.987-.806l.451.451c-.294.32-.656.566-1.085.739-.399.158-.861.25-1.344.25h-.041.002zm5.677-.01h-.039c-.468 0-.908-.121-1.289-.334l.014.007a2.466 2.466 0 0 1-.915-.91l-.006-.012a2.578 2.578 0 0 1-.336-1.283v-.044.002c0-.493.112-.934.336-1.325s.531-.694.922-.912a2.618 2.618 0 0 1 1.276-.327h.041-.002c.486 0 .925.109 1.315.326s.694.522.912.912c.224.39.336.832.336 1.325s-.112.934-.336 1.325a2.398 2.398 0 0 1-.9.915l-.012.006a2.618 2.618 0 0 1-1.276.327h-.041.002zm0-.605c.358 0 .678-.08.96-.24.288-.166.512-.4.672-.701s.24-.643.24-1.027-.08-.726-.24-1.027a1.665 1.665 0 0 0-.672-.691 1.831 1.831 0 0 0-.929-.25h-.033.002a1.9 1.9 0 0 0-.97.25 1.74 1.74 0 0 0-.672.691c-.16.301-.24.643-.24 1.027s.08.726.24 1.027c.166.301.39.534.672.701.288.16.611.24.97.24zm8.562-6.566V12H57.6v-.998c-.198.33-.474.595-.805.772l-.011.005c-.317.17-.693.269-1.092.269h-.043.002-.034c-.46 0-.892-.121-1.265-.333l.013.007a2.34 2.34 0 0 1-.896-.9l-.006-.012c-.218-.39-.326-.835-.326-1.334s.109-.944.326-1.334c.212-.383.519-.69.891-.896l.012-.006a2.54 2.54 0 0 1 1.252-.327h.036-.002c.41 0 .778.086 1.104.259.338.172.614.424.811.731l.005.008V4.877h.682zm-2.544 6.566c.352 0 .669-.08.95-.24.288-.166.512-.4.672-.701.166-.301.25-.643.25-1.027s-.083-.726-.25-1.027a1.665 1.665 0 0 0-.672-.691 1.812 1.812 0 0 0-.923-.25h-.028.001a1.9 1.9 0 0 0-.97.25 1.74 1.74 0 0 0-.672.691c-.16.301-.24.643-.24 1.027s.08.726.24 1.027c.166.301.39.534.672.701.288.16.611.24.97.24zM60.15 6.95h.682V12h-.682V6.95zm.346-1.104h-.011a.481.481 0 0 1-.344-.144.47.47 0 0 1-.144-.339v-.006c0-.128.048-.24.144-.336s.214-.144.355-.144.259.048.355.144a.43.43 0 0 1 .144.326.482.482 0 0 1-.144.355.481.481 0 0 1-.344.144h-.012.001zm4.806 1.066c.634 0 1.136.186 1.507.557.378.365.566.899.566 1.603V12h-.682V9.139c0-.525-.131-.925-.394-1.2s-.637-.413-1.123-.413c-.544 0-.976.163-1.296.49-.314.32-.47.765-.47 1.334V12h-.682V6.95h.653v.931c.186-.307.442-.544.768-.71a2.463 2.463 0 0 1 1.152-.259zm8.617.038v4.435c0 .858-.211 1.491-.634 1.901-.416.416-1.046.624-1.891.624h-.02a4.18 4.18 0 0 1-1.344-.22l.03.009c-.416-.134-.755-.323-1.018-.566l.346-.518c.243.218.538.387.883.509.352.122.72.182 1.104.182.64 0 1.11-.15 1.411-.451.301-.294.451-.755.451-1.382v-.643c-.211.32-.49.563-.835.73-.321.158-.699.25-1.098.25h-.037.002-.033c-.461 0-.896-.114-1.278-.315l.015.007a2.41 2.41 0 0 1-.906-.863l-.006-.011a2.486 2.486 0 0 1-.327-1.238v-.04.002c0-.474.109-.896.326-1.267.224-.371.528-.659.912-.864a2.674 2.674 0 0 1 1.254-.308h.044-.002c.429 0 .816.086 1.162.259s.624.422.835.749v-.97h.653zm-2.582 4.253c.365 0 .694-.077.989-.23.294-.16.522-.381.682-.662.166-.282.25-.602.25-.96v-.035c0-.338-.093-.653-.254-.923l.005.008a1.652 1.652 0 0 0-.672-.649l-.009-.004a2.003 2.003 0 0 0-.989-.24c-.365 0-.694.077-.989.23a1.72 1.72 0 0 0-.682.653c-.16.282-.24.602-.24.96s.08.678.24.96c.166.282.394.502.682.662a2.1 2.1 0 0 0 .989.23zm-8.971 7.559a15.73 15.73 0 0 0-.45.708c-.112.176-.288.477-.458.783l-.072.14c-.159.285-.317.588-.473.91-.2.386-.478.997-.74 1.617l-.09.239c-.077.143-.276.637-.468 1.135l-.122.361c-.031.078-.088.117-.168.117h-.003a.166.166 0 0 1-.106-.038.202.202 0 0 1-.061-.102v-.001l-.046-.197c-.325-1.591-.425-2.019-.527-2.445l.237 1.175a34.62 34.62 0 0 0-.291-1.317l.088.431c-.068-.31-.138-.622-.21-.938s-.139-.616-.202-.9a17.058 17.058 0 0 1-.679 1.68l.046-.11c-.211.462-.427.85-.669 1.221l.022-.035a5.041 5.041 0 0 1-.688.843l-.001.001a3.39 3.39 0 0 1-.724.544l-.017.009a3.001 3.001 0 0 1-.811.296 4.213 4.213 0 0 1-.869.088h-.028.001c-.162 0-.336-.018-.52-.056a2.723 2.723 0 0 1-.567-.171l.018.007a2.991 2.991 0 0 1-.53-.287l.01.006a2.123 2.123 0 0 1-.437-.395l-.003-.003a1.888 1.888 0 0 1-.301-.513l-.005-.013a1.801 1.801 0 0 1-.112-.631v-.026.001c0-.253.053-.484.159-.694.106-.213.25-.394.432-.544.181-.153.39-.272.627-.356.241-.085.494-.126.76-.126.194 0 .366.017.52.051.156.032.294.072.412.122s.221.105.305.165c.085.059.155.114.211.164s.097.094.122.131c.012.02.026.036.042.051a.177.177 0 0 1-.023.22.158.158 0 0 1-.12.056h-.01a.179.179 0 0 1-.147-.079v-.001l-.069-.077-.006-.007a.983.983 0 0 0-.225-.181l-.005-.002a1.803 1.803 0 0 0-.399-.174l-.013-.003a1.975 1.975 0 0 0-.564-.081l-.048.001h.002c-.219 0-.426.034-.624.103-.194.066-.363.16-.51.281a1.43 1.43 0 0 0-.347.436c-.08.156-.127.339-.127.534v.016-.001c0 .197.033.376.098.539s.154.308.262.436c.11.128.235.238.373.329l.007.004a2.534 2.534 0 0 0 1.369.412c.238 0 .469-.017.694-.051.228-.038.451-.106.67-.206.222-.1.439-.238.651-.412.213-.176.424-.404.633-.685s.416-.62.619-1.017c.281-.536.552-1.175.774-1.836l.028-.096.182-.567a9.636 9.636 0 0 1-.11-.641l-.007-.061a4.328 4.328 0 0 1-.033-.48v-.003c0-.138.01-.247.032-.328a.46.46 0 0 1 .086-.184l-.001.001a.21.21 0 0 1 .111-.08h.001a.326.326 0 0 1 .222.001l-.002-.001a.214.214 0 0 1 .109.085c.034.041.062.102.085.183s.032.19.032.328c0 .15-.014.323-.042.52a7.142 7.142 0 0 1-.137.703l.011-.051c.04.19.087.403.14.638 1.411 7.133 1.588 7.897 1.765 8.66l-1.254-6.392.16.717.144.618.31-.768a36.81 36.81 0 0 1 .99-2.246l-.108.25c.168-.354.34-.686.515-.999.262-.476.487-.848.724-1.211l-.044.073c.206-.319.384-.582.534-.788.165-.232.327-.433.498-.625l-.006.007a.171.171 0 0 1 .123-.052h.004c.053 0 .095.019.126.056a.165.165 0 0 1 .037.189v-.001a5.838 5.838 0 0 0-.16.408l-.032.099c-.054.153-.113.334-.178.544-.125.374-.249.85-.347 1.337l-.014.083c-.064.336-.11.732-.127 1.136l-.001.017a7.172 7.172 0 0 0 .021 1.041l-.002-.028c.018.21.05.411.094.605.048.21.109.393.186.567l-.008-.019c.075.169.167.318.277.446s.238.231.389.31c.153.078.33.12.53.126a.145.145 0 0 1 .116.065v.001a.184.184 0 0 1 .047.122c0 .046-.02.088-.051.118a.164.164 0 0 1-.12.051h-.002c-.05 0-.1-.005-.15-.014a1.694 1.694 0 0 1-.595-.192 1.776 1.776 0 0 1-.444-.364l-.002-.002a2.116 2.116 0 0 1-.309-.483l-.005-.013a3.353 3.353 0 0 1-.192-.576l-.005-.024a4.556 4.556 0 0 1-.106-.641l-.002-.02A8.502 8.502 0 0 1 61.896 21l-.003.037c.06-.595.158-1.133.293-1.655l-.017.075c.062-.246.126-.476.192-.688zm5.395 4.73-.08.16a3.128 3.128 0 0 1-.15.272 3.653 3.653 0 0 1-.219.334l.007-.01c-.081.112-.172.216-.272.309s-.208.172-.323.234a.785.785 0 0 1-.365.09h-.016a.648.648 0 0 1-.443-.174 1.006 1.006 0 0 1-.265-.429l-.002-.007c-.106.178-.233.32-.38.426a.756.756 0 0 1-.439.155h-.011a.773.773 0 0 1-.309-.064l.005.002a.734.734 0 0 1-.239-.177l-.001-.001a.865.865 0 0 1-.152-.266l-.002-.006a1.04 1.04 0 0 1-.052-.328v-.01c0-.244.041-.458.122-.642.08-.182.187-.337.318-.469.118-.117.258-.212.413-.278l.009-.003c.157-.062.306-.094.45-.094a1.068 1.068 0 0 1 .662.26l-.002-.001c.034.04.052.082.052.126 0 .049-.02.094-.052.126a.165.165 0 0 1-.121.052H65.9a.171.171 0 0 1-.123-.052.44.44 0 0 0-.041-.031l-.001-.001a.509.509 0 0 0-.086-.056l-.003-.001a.62.62 0 0 0-.132-.046l-.004-.001a.584.584 0 0 0-.166-.024h-.008c-.097 0-.2.022-.31.066s-.21.112-.3.206a1.152 1.152 0 0 0-.227.339l-.003.007a1.221 1.221 0 0 0-.069.683l-.001-.008a.5.5 0 0 0 .067.166l-.001-.002a.38.38 0 0 0 .125.121l.002.001a.378.378 0 0 0 .197.048.423.423 0 0 0 .194-.058l-.002.001a.67.67 0 0 0 .21-.172l.001-.001a1.424 1.424 0 0 0 .3-.717.169.169 0 0 1 .061-.108.175.175 0 0 1 .12-.047h.002c.044 0 .082.018.112.052.031.03.052.071.056.116v.001l.019.254c.01.106.03.212.061.318a.832.832 0 0 0 .15.277.335.335 0 0 0 .255.117h.018-.001a.44.44 0 0 0 .222-.062l-.002.001a.988.988 0 0 0 .216-.16 1.73 1.73 0 0 0 .202-.229c.114-.15.22-.319.31-.497l.008-.019.103-.211a.19.19 0 0 1 .065-.08h.001a.19.19 0 0 1 .098-.027h.006a.15.15 0 0 1 .121.061.177.177 0 0 1 .052.121.168.168 0 0 1-.015.067v-.001zm1.373 1.768c.587-.766.995-1.402 1.224-1.909a.164.164 0 0 1 .153-.102h.001c.053 0 .096.018.131.056a.165.165 0 0 1 .038.188v-.001a7.382 7.382 0 0 1-.586 1.046c-.337.501-.653.926-.986 1.336l.026-.032c0 .197.002.394.005.59s.005.413.005.647a12.211 12.211 0 0 1-.075 1.35c-.029.22-.07.415-.125.605l.007-.029a1.717 1.717 0 0 1-.192.468l.004-.008a.895.895 0 0 1-.274.302l-.003.002a.638.638 0 0 1-.365.114h-.015.001l-.026.001a.552.552 0 0 1-.456-.239l-.001-.002c-.112-.159-.168-.386-.168-.679 0-.156.014-.326.042-.511.032-.181.075-.368.131-.562s.123-.39.202-.59c.082-.197.17-.389.267-.576s.202-.368.314-.54a3.91 3.91 0 0 1 .366-.468 30.83 30.83 0 0 1 .018-1.247 1.06 1.06 0 0 1-.332.279l-.006.003a.812.812 0 0 1-.384.102h-.009a.71.71 0 0 1-.295-.063l.005.002a.687.687 0 0 1-.224-.177l-.001-.001a.866.866 0 0 1-.144-.266l-.002-.006a1.04 1.04 0 0 1-.052-.328v-.01c0-.244.041-.458.122-.642.08-.182.187-.337.318-.469.118-.117.258-.212.413-.278l.009-.003c.157-.062.306-.094.45-.094.097 0 .186.012.267.037s.15.054.206.085a.697.697 0 0 1 .187.136.178.178 0 0 1 0 .252.165.165 0 0 1-.121.052h-.001a.194.194 0 0 1-.126-.052 1.23 1.23 0 0 0-.043-.032l-.009-.006a.466.466 0 0 0-.194-.103l-.003-.001a.56.56 0 0 0-.146-.019h-.014.001a.86.86 0 0 0-.309.066.92.92 0 0 0-.314.197c-.097.09-.178.208-.244.352a1.192 1.192 0 0 0-.099.477l.001.035v-.002c0 .15.032.272.098.366.066.09.167.136.304.136a.447.447 0 0 0 .209-.057l-.002.001a.716.716 0 0 0 .215-.173l.001-.001c.068-.078.128-.176.178-.296.054-.123.093-.265.111-.413l.001-.007a.169.169 0 0 1 .061-.108.175.175 0 0 1 .12-.047h.002c.053 0 .094.019.122.056a.19.19 0 0 1 .047.127l-.005.145-.01.366-.014.534-.01.638zm-.356 1.026c-.147.203-.28.424-.398.662-.1.196-.203.435-.291.682l-.014.044c-.085.244-.15.48-.197.708a3.258 3.258 0 0 0-.066.616V29c0 .116.009.208.028.277a.52.52 0 0 0 .076.161l-.001-.002a.24.24 0 0 0 .099.075.331.331 0 0 0 .355-.098.968.968 0 0 0 .18-.308l.002-.007c.05-.128.091-.277.122-.446s.054-.344.07-.525a12.533 12.533 0 0 0 .042-1.026v-.403a8.31 8.31 0 0 0-.009-.413zm2.348-5.166v.006a.412.412 0 0 1-.126.298.404.404 0 0 1-.291.122h-.015a.424.424 0 0 1-.298-.122.422.422 0 0 1-.122-.298v-.006a.426.426 0 0 1 .122-.301.41.41 0 0 1 .302-.127c.06 0 .117.012.169.034l-.003-.001a.397.397 0 0 1 .136.093.403.403 0 0 1 .126.294v.006zm-.759 2.747c0-.45.028-.898.084-1.346a.19.19 0 0 1 .056-.112.178.178 0 0 1 .126-.052h.007c.046 0 .086.019.117.056a.173.173 0 0 1 .047.122c0 .018-.005.075-.014.168a13.02 13.02 0 0 1-.028.338l-.028.412a9.73 9.73 0 0 0-.01.398c0 .166.016.3.047.403.028.09.072.168.127.236l-.001-.001a.409.409 0 0 0 .161.111l.003.001c.05.017.108.028.168.029a.488.488 0 0 0 .272-.094c.109-.076.202-.163.284-.26l.002-.002c.1-.112.2-.247.3-.403.1-.16.198-.336.296-.53a.157.157 0 0 1 .065-.07h.001a.161.161 0 0 1 .092-.028h.002c.05 0 .09.018.122.056.031.031.05.074.051.121a.163.163 0 0 1-.018.08c-.038.072-.084.16-.141.262a4.536 4.536 0 0 1-.438.656l.007-.009a2.569 2.569 0 0 1-.27.289l-.002.002a1.463 1.463 0 0 1-.296.203l-.008.004a.755.755 0 0 1-.698-.011l.004.002a.87.87 0 0 1-.27-.237l-.002-.002a1.102 1.102 0 0 1-.163-.344l-.002-.008a1.75 1.75 0 0 1-.051-.428v-.012.001zm.497-2.747v-.001a.148.148 0 0 0-.051-.111.146.146 0 0 0-.112-.052H70.7a.146.146 0 0 0-.112.052.15.15 0 0 0-.048.111v.001c0 .044.016.082.048.113.03.032.068.047.112.047s.082-.016.112-.047a.146.146 0 0 0 .052-.112zm4.58 2.382a6.798 6.798 0 0 0-.098.187 2.45 2.45 0 0 1-.189.318l.005-.008c-.075.112-.166.23-.272.352-.218.259-.498.46-.816.581l-.014.005a1.492 1.492 0 0 1-.537.099h-.017.001a1.1 1.1 0 0 1-.474-.098.991.991 0 0 1-.351-.266l-.001-.002a1.243 1.243 0 0 1-.218-.408l-.002-.009a1.768 1.768 0 0 1-.075-.53v-.012c0-.183.029-.359.083-.524l-.003.012a1.44 1.44 0 0 1 .216-.431c.094-.122.202-.217.323-.286a.748.748 0 0 1 .675-.05l-.005-.002a.593.593 0 0 1 .21.141c.06.059.105.125.136.197a.492.492 0 0 1 .052.216v.005a.63.63 0 0 1-.029.191l.001-.005a.634.634 0 0 1-.067.162l.002-.003a.408.408 0 0 1-.089.108h-.001a.18.18 0 0 1-.234-.015.178.178 0 0 1-.031-.193v.001l.037-.056a.316.316 0 0 0 .056-.181v-.012.001c0-.066-.031-.126-.094-.178a.329.329 0 0 0-.216-.08h-.014.001a.451.451 0 0 0-.254.081l.001-.001a.77.77 0 0 0-.205.213l-.002.003a1.186 1.186 0 0 0-.197.684v.01-.001c0 .128.016.25.046.366.032.116.078.219.141.31a.717.717 0 0 0 .234.211c.097.053.211.08.342.08.168 0 .325-.03.469-.09.144-.062.275-.141.394-.234s.224-.195.314-.304c.075-.092.151-.194.221-.3l.009-.014c.079-.115.151-.246.21-.384l.006-.015a.14.14 0 0 1 .059-.07h.001a.182.182 0 0 1 .099-.028c.053 0 .095.018.126.056.034.038.051.08.051.126a.218.218 0 0 1-.019.077l.001-.001z"/></symbol></defs></svg>